<?xml version="1.0" encoding="UTF-8" standalone="no"?>
<!DOCTYPE svg PUBLIC "-//W3C//DTD SVG 1.1//EN" "http://www.w3.org/Graphics/SVG/1.1/DTD/svg11.dtd">
<svg version="1.1" xmlns="http://www.w3.org/2000/svg" xmlns:xlink="http://www.w3.org/1999/xlink" preserveAspectRatio="xMidYMid meet" viewBox="0 0 640 640" width="640" height="640"><defs><path d="M256 512C397.39 512 512 397.39 512 256C512 114.61 397.39 0 256 0C114.61 0 0 114.61 0 256C0 397.39 114.61 512 256 512ZM256 40C375.3 40 472 136.7 472 256C472 375.3 375.3 472 256 472C136.7 472 40 375.3 40 256C40 136.7 136.7 40 256 40Z" id="h9llyDNBH"></path><path d="M256 512C397.39 512 512 397.39 512 256C512 114.61 397.39 0 256 0C114.61 0 0 114.61 0 256C0 397.39 114.61 512 256 512ZM256 40C375.3 40 472 136.7 472 256C472 375.3 375.3 472 256 472C136.7 472 40 375.3 40 256C40 136.7 136.7 40 256 40Z" id="am9Uvog2p"></path><path d="M166.5 166.13C166.5 184.11 166.5 327.92 166.5 345.9C166.5 365.65 182.64 373.69 199.49 363.71C214.78 354.75 337.15 283.09 352.44 274.13C369.35 264.16 370.55 247.85 353.66 237.88C322.83 219.96 214.9 157.24 199.49 148.29C182.64 138.32 166.5 146.35 166.5 166.13Z" id="c1MvGUUM34"></path><path d="M166.5 166.13C166.5 184.11 166.5 327.92 166.5 345.9C166.5 365.65 182.64 373.69 199.49 363.71C214.78 354.75 337.15 283.09 352.44 274.13C369.35 264.16 370.55 247.85 353.66 237.88C322.83 219.96 214.9 157.24 199.49 148.29C182.64 138.32 166.5 146.35 166.5 166.13Z" id="b2dIDLNl8m"></path></defs><g><g><g><use xlink:href="#h9llyDNBH" opacity="1" fill="#ff0000" fill-opacity="1"></use><g><use xlink:href="#h9llyDNBH" opacity="1" fill-opacity="0" stroke="#000000" stroke-width="1" stroke-opacity="0"></use></g></g><g><use xlink:href="#am9Uvog2p" opacity="1" fill="#ff0000" fill-opacity="1"></use><g><use xlink:href="#am9Uvog2p" opacity="1" fill-opacity="0" stroke="#000000" stroke-width="1" stroke-opacity="0"></use></g></g><g><use xlink:href="#c1MvGUUM34" opacity="1" fill="#ff0000" fill-opacity="1"></use><g><use xlink:href="#c1MvGUUM34" opacity="1" fill-opacity="0" stroke="#000000" stroke-width="1" stroke-opacity="0"></use></g></g><g><use xlink:href="#b2dIDLNl8m" opacity="1" fill="#ff0000" fill-opacity="1"></use><g><use xlink:href="#b2dIDLNl8m" opacity="1" fill-opacity="0" stroke="#000000" stroke-width="1" stroke-opacity="0"></use></g></g></g></g></svg>